<mxfile host="app.diagrams.net" modified="2023-01-05T11:49:30.671Z" agent="5.0 (Windows)" version="20.8.1" etag="xwadxDyXtXJR_b_-_FpC" type="github">
  <diagram id="mj-FfH_b73bmnx-qT4oj" name="Page-1">
    <mxGraphModel dx="2049" dy="1077" grid="1" gridSize="10" guides="1" tooltips="1" connect="1" arrows="1" fold="1" page="1" pageScale="1" pageWidth="827" pageHeight="1169" math="0" shadow="0">
      <root>
        <mxCell id="0" />
        <mxCell id="1" parent="0" />
        <mxCell id="E9D6X-pXUMolR6ZD_Itp-3" style="edgeStyle=orthogonalEdgeStyle;rounded=0;orthogonalLoop=1;jettySize=auto;html=1;exitX=0.5;exitY=1;exitDx=0;exitDy=0;" edge="1" parent="1" source="E9D6X-pXUMolR6ZD_Itp-1" target="E9D6X-pXUMolR6ZD_Itp-2">
          <mxGeometry relative="1" as="geometry" />
        </mxCell>
        <mxCell id="E9D6X-pXUMolR6ZD_Itp-1" value="&lt;font style=&quot;font-size: 14px;&quot;&gt;Saisie de l&#39;utilisateur dans la barre de recherche&lt;/font&gt;" style="rounded=1;whiteSpace=wrap;html=1;fillColor=#fff2cc;strokeColor=#d6b656;" vertex="1" parent="1">
          <mxGeometry x="320" y="40" width="250" height="60" as="geometry" />
        </mxCell>
        <mxCell id="E9D6X-pXUMolR6ZD_Itp-5" style="edgeStyle=orthogonalEdgeStyle;rounded=0;orthogonalLoop=1;jettySize=auto;html=1;exitX=0.5;exitY=1;exitDx=0;exitDy=0;entryX=0.5;entryY=0;entryDx=0;entryDy=0;" edge="1" parent="1" source="E9D6X-pXUMolR6ZD_Itp-2" target="E9D6X-pXUMolR6ZD_Itp-4">
          <mxGeometry relative="1" as="geometry" />
        </mxCell>
        <mxCell id="E9D6X-pXUMolR6ZD_Itp-26" style="edgeStyle=orthogonalEdgeStyle;rounded=0;orthogonalLoop=1;jettySize=auto;html=1;exitX=1;exitY=0.5;exitDx=0;exitDy=0;" edge="1" parent="1" source="E9D6X-pXUMolR6ZD_Itp-2" target="E9D6X-pXUMolR6ZD_Itp-25">
          <mxGeometry relative="1" as="geometry" />
        </mxCell>
        <mxCell id="E9D6X-pXUMolR6ZD_Itp-2" value="&lt;div style=&quot;font-size: 14px;&quot;&gt;Au minimum&lt;/div&gt;&lt;div style=&quot;font-size: 14px;&quot;&gt;3 caractères&lt;br&gt;&lt;/div&gt;" style="rhombus;whiteSpace=wrap;html=1;fillColor=#e1d5e7;strokeColor=#9673a6;" vertex="1" parent="1">
          <mxGeometry x="382.5" y="150" width="125" height="100" as="geometry" />
        </mxCell>
        <mxCell id="E9D6X-pXUMolR6ZD_Itp-13" style="edgeStyle=orthogonalEdgeStyle;rounded=0;orthogonalLoop=1;jettySize=auto;html=1;exitX=0.5;exitY=1;exitDx=0;exitDy=0;" edge="1" parent="1" source="E9D6X-pXUMolR6ZD_Itp-4" target="E9D6X-pXUMolR6ZD_Itp-10">
          <mxGeometry relative="1" as="geometry" />
        </mxCell>
        <mxCell id="E9D6X-pXUMolR6ZD_Itp-4" value="&lt;div align=&quot;center&quot;&gt;&lt;font style=&quot;font-size: 14px;&quot;&gt;La méthode de filtre va s&#39;appliquer selon différentes conditions&lt;b&gt;&lt;br&gt;&lt;/b&gt;&lt;/font&gt;&lt;/div&gt;&lt;div align=&quot;center&quot;&gt;&lt;div align=&quot;center&quot;&gt;&lt;font style=&quot;font-size: 14px;&quot;&gt;&lt;b&gt;recipes.filter(recipe)&lt;/b&gt;&lt;/font&gt;&lt;/div&gt;&lt;/div&gt;" style="rounded=1;whiteSpace=wrap;html=1;align=center;fillColor=#dae8fc;strokeColor=#6c8ebf;" vertex="1" parent="1">
          <mxGeometry x="321.25" y="320" width="247.5" height="70" as="geometry" />
        </mxCell>
        <mxCell id="E9D6X-pXUMolR6ZD_Itp-12" style="edgeStyle=orthogonalEdgeStyle;rounded=0;orthogonalLoop=1;jettySize=auto;html=1;exitX=0.5;exitY=1;exitDx=0;exitDy=0;entryX=0.5;entryY=0;entryDx=0;entryDy=0;" edge="1" parent="1" source="E9D6X-pXUMolR6ZD_Itp-10" target="E9D6X-pXUMolR6ZD_Itp-11">
          <mxGeometry relative="1" as="geometry" />
        </mxCell>
        <mxCell id="E9D6X-pXUMolR6ZD_Itp-36" style="edgeStyle=orthogonalEdgeStyle;rounded=0;orthogonalLoop=1;jettySize=auto;html=1;exitX=1;exitY=0.5;exitDx=0;exitDy=0;fontSize=14;" edge="1" parent="1" source="E9D6X-pXUMolR6ZD_Itp-10" target="E9D6X-pXUMolR6ZD_Itp-33">
          <mxGeometry relative="1" as="geometry" />
        </mxCell>
        <mxCell id="E9D6X-pXUMolR6ZD_Itp-10" value="&lt;div style=&quot;font-size: 14px;&quot;&gt;Si le nom de la recette, la description ou les ingrédients sont contenus dans la saisie de l&#39;utilisateur&lt;/div&gt;&lt;div style=&quot;font-size: 14px;&quot;&gt;&lt;b&gt;( utilisation d&#39;includes )&lt;/b&gt;&lt;br&gt;&lt;/div&gt;" style="whiteSpace=wrap;html=1;aspect=fixed;fillColor=#e1d5e7;strokeColor=#9673a6;" vertex="1" parent="1">
          <mxGeometry x="353.75" y="430" width="182.5" height="182.5" as="geometry" />
        </mxCell>
        <mxCell id="E9D6X-pXUMolR6ZD_Itp-11" value="&lt;div style=&quot;font-size: 14px;&quot;&gt;&lt;font style=&quot;font-size: 14px;&quot;&gt;Affiche la ou les recettes concernées&lt;/font&gt;&lt;/div&gt;&lt;div style=&quot;font-size: 14px;&quot;&gt;&lt;font style=&quot;font-size: 14px;&quot;&gt;&lt;b&gt;recettes.push(recipe)&lt;/b&gt;&lt;/font&gt;&lt;br&gt;&lt;/div&gt;" style="ellipse;whiteSpace=wrap;html=1;aspect=fixed;fillColor=#dae8fc;strokeColor=#6c8ebf;" vertex="1" parent="1">
          <mxGeometry x="360" y="730" width="170" height="170" as="geometry" />
        </mxCell>
        <mxCell id="E9D6X-pXUMolR6ZD_Itp-14" value="OUI" style="text;strokeColor=#82b366;fillColor=#d5e8d4;html=1;fontSize=24;fontStyle=1;verticalAlign=middle;align=center;" vertex="1" parent="1">
          <mxGeometry x="380" y="270" width="57.5" height="25" as="geometry" />
        </mxCell>
        <mxCell id="E9D6X-pXUMolR6ZD_Itp-17" value="&lt;div style=&quot;font-size: 14px;&quot;&gt;&lt;font style=&quot;font-size: 14px;&quot;&gt;Affiche toutes les recettes&lt;/font&gt;&lt;/div&gt;&lt;div style=&quot;font-size: 14px;&quot;&gt;&lt;font style=&quot;font-size: 14px;&quot;&gt;&lt;b&gt;recettes = recipes&lt;/b&gt;&lt;/font&gt;&lt;br&gt;&lt;/div&gt;" style="ellipse;whiteSpace=wrap;html=1;aspect=fixed;fillColor=#ffe6cc;strokeColor=#d79b00;" vertex="1" parent="1">
          <mxGeometry x="650" y="310" width="150" height="150" as="geometry" />
        </mxCell>
        <mxCell id="E9D6X-pXUMolR6ZD_Itp-19" value="NON" style="text;strokeColor=#b85450;fillColor=#f8cecc;html=1;fontSize=24;fontStyle=1;verticalAlign=middle;align=center;" vertex="1" parent="1">
          <mxGeometry x="600" y="530" width="57.5" height="25" as="geometry" />
        </mxCell>
        <mxCell id="E9D6X-pXUMolR6ZD_Itp-24" value="OUI" style="text;strokeColor=#82b366;fillColor=#d5e8d4;html=1;fontSize=24;fontStyle=1;verticalAlign=middle;align=center;" vertex="1" parent="1">
          <mxGeometry x="380" y="660" width="57.5" height="25" as="geometry" />
        </mxCell>
        <mxCell id="E9D6X-pXUMolR6ZD_Itp-39" style="edgeStyle=orthogonalEdgeStyle;rounded=0;orthogonalLoop=1;jettySize=auto;html=1;exitX=0.5;exitY=1;exitDx=0;exitDy=0;fontSize=14;" edge="1" parent="1" source="E9D6X-pXUMolR6ZD_Itp-25" target="E9D6X-pXUMolR6ZD_Itp-17">
          <mxGeometry relative="1" as="geometry" />
        </mxCell>
        <mxCell id="E9D6X-pXUMolR6ZD_Itp-25" value="&lt;font style=&quot;font-size: 14px;&quot;&gt;Moins de 3 caractères&lt;/font&gt;" style="rounded=0;whiteSpace=wrap;html=1;fillColor=#f8cecc;strokeColor=#b85450;" vertex="1" parent="1">
          <mxGeometry x="665" y="170" width="120" height="60" as="geometry" />
        </mxCell>
        <mxCell id="E9D6X-pXUMolR6ZD_Itp-28" value="NON" style="text;strokeColor=#b85450;fillColor=#f8cecc;html=1;fontSize=24;fontStyle=1;verticalAlign=middle;align=center;" vertex="1" parent="1">
          <mxGeometry x="570" y="205" width="57.5" height="25" as="geometry" />
        </mxCell>
        <mxCell id="E9D6X-pXUMolR6ZD_Itp-33" value="Affiche un message d&#39;erreur" style="ellipse;whiteSpace=wrap;html=1;aspect=fixed;fontSize=14;fillColor=#ffe6cc;strokeColor=#d79b00;" vertex="1" parent="1">
          <mxGeometry x="625" y="730" width="160" height="160" as="geometry" />
        </mxCell>
      </root>
    </mxGraphModel>
  </diagram>
</mxfile>
